<?xml version="1.0" encoding="UTF-8"?>
<svg id="icon--JD" xmlns="http://www.w3.org/2000/svg" xmlns:xlink="http://www.w3.org/1999/xlink" width="200px" height="150px" viewBox="0 0 100 62.57" version="1.1">
<g id="surface1">
<path style=" stroke:none;fill-rule:nonzero;fill:#11101b;fill-opacity:1;" d="M 0 -0.00390625 L 100 -0.00390625 L 100 62.570313 L 0 62.570313 L 0 -0.00390625 "/>
<path style=" stroke:none;fill-rule:nonzero;fill:rgb(100%,100%,100%);fill-opacity:1;" d="M 32.378906 33.109375 C 33.144531 31.324219 33.898438 29.535156 34.660156 27.746094 C 35.410156 29.535156 36.148438 31.328125 36.902344 33.113281 C 35.394531 33.105469 33.890625 33.109375 32.378906 33.109375 Z M 28.242188 38.59375 C 28.839844 38.59375 29.433594 38.589844 30.03125 38.585938 C 30.601563 37.277344 31.144531 35.953125 31.714844 34.644531 C 33.65625 34.648438 35.597656 34.644531 37.539063 34.644531 C 38.089844 35.957031 38.636719 37.277344 39.1875 38.59375 C 39.785156 38.59375 40.382813 38.59375 40.980469 38.59375 C 38.894531 33.699219 36.816406 28.804688 34.6875 23.929688 C 32.546875 28.820313 30.378906 33.699219 28.242188 38.59375 "/>
<path style=" stroke:none;fill-rule:nonzero;fill:rgb(100%,100%,100%);fill-opacity:1;" d="M 24.925781 24.265625 C 24.925781 27.578125 24.921875 30.894531 24.929688 34.207031 C 24.910156 34.953125 24.910156 35.792969 24.390625 36.386719 C 23.695313 37.089844 22.460938 37.113281 21.726563 36.457031 C 21.171875 35.808594 21.167969 34.910156 21.085938 34.109375 C 20.53125 34.207031 19.972656 34.292969 19.414063 34.382813 C 19.464844 35.742188 19.675781 37.347656 20.933594 38.132813 C 22.386719 38.996094 24.480469 38.882813 25.714844 37.683594 C 26.597656 36.761719 26.710938 35.410156 26.753906 34.199219 C 26.757813 30.886719 26.753906 27.574219 26.753906 24.265625 C 26.144531 24.265625 25.535156 24.265625 24.925781 24.265625 "/>
<path style=" stroke:none;fill-rule:nonzero;fill:rgb(100%,100%,100%);fill-opacity:1;" d="M 47.460938 26.074219 C 49.449219 25.511719 51.605469 26.34375 53.007813 27.785156 C 52.992188 27.097656 52.992188 26.410156 53.003906 25.722656 C 51.085938 24.308594 48.464844 24.019531 46.253906 24.871094 C 43.136719 26.011719 41.113281 29.480469 41.679688 32.753906 C 42.09375 35.714844 44.585938 38.183594 47.515625 38.691406 C 49.414063 39.082031 51.402344 38.5625 52.996094 37.5 C 52.992188 36.816406 52.996094 36.128906 53.007813 35.449219 C 51.867188 36.5 50.410156 37.3125 48.820313 37.289063 C 46.261719 37.355469 43.933594 35.347656 43.378906 32.890625 C 42.609375 30.015625 44.585938 26.78125 47.460938 26.074219 "/>
<path style=" stroke:none;fill-rule:nonzero;fill:rgb(100%,100%,100%);fill-opacity:1;" d="M 61.992188 37.289063 C 59.457031 37.316406 57.152344 35.347656 56.605469 32.898438 C 55.871094 30.140625 57.621094 27.039063 60.335938 26.191406 C 63.691406 24.921875 67.652344 27.710938 67.695313 31.269531 C 67.976563 34.40625 65.167969 37.445313 61.992188 37.289063 Z M 60.296875 24.613281 C 57.65625 25.246094 55.484375 27.492188 54.980469 30.164063 C 54.457031 32.480469 55.230469 35.007813 56.902344 36.6875 C 59.519531 39.40625 64.289063 39.539063 67.011719 36.90625 C 69.234375 34.96875 69.945313 31.589844 68.8125 28.886719 C 67.53125 25.625 63.691406 23.675781 60.296875 24.613281 "/>
<path style=" stroke:none;fill-rule:nonzero;fill:rgb(100%,100%,100%);fill-opacity:1;" d="M 76.863281 36.566406 C 75.675781 37.234375 74.261719 37.03125 72.953125 37.054688 C 72.953125 35.421875 72.953125 33.792969 72.953125 32.164063 C 74.273438 32.179688 75.707031 31.996094 76.910156 32.671875 C 78.339844 33.414063 78.296875 35.847656 76.863281 36.566406 Z M 76.296875 26.925781 C 76.828125 27.789063 76.847656 28.992188 76.316406 29.859375 C 75.535156 30.878906 74.089844 30.703125 72.957031 30.789063 C 72.953125 29.246094 72.953125 27.707031 72.953125 26.167969 C 74.078125 26.1875 75.464844 25.988281 76.296875 26.925781 Z M 77.066406 31.113281 C 78.726563 29.855469 78.707031 27.070313 77.242188 25.675781 C 75.59375 24.316406 73.324219 24.683594 71.347656 24.628906 C 71.34375 29.28125 71.34375 33.9375 71.34375 38.59375 C 73.652344 38.492188 76.25 39 78.265625 37.582031 C 80.492188 35.933594 79.796875 31.832031 77.066406 31.113281 "/>
</g>
</svg>
