<svg id="icon--unmute" xmlns="http://www.w3.org/2000/svg" viewBox="0 0 95.21 95.21">
  <g id="Layer_1" data-name="Layer 1">
    <path d="M95.21,47.6A47.61,47.61,0,1,1,47.6,0,47.62,47.62,0,0,1,95.21,47.6Z" fill="#18dbb8"/>
  </g>
  <g id="Layer_3" data-name="Layer 3">
    <g>
      <polygon points="21.26 37.77 21.26 55.27 33.3 55.27 48.3 66.98 48.3 26.05 33.3 37.77 21.26 37.77" fill="#fff"/>
      <path d="M66.41,18.5l-3.53,5.55C69.3,26.82,74.17,36,74.17,46.52S69.38,66.06,63,68.92l3.45,5.57c8.29-4.23,14.2-15.15,14.2-28S74.74,22.7,66.41,18.5Z" fill="#fff"/>
      <path d="M59.54,29.3l-3.45,5.44a15.92,15.92,0,0,1,4.78,11.78,16.11,16.11,0,0,1-4.53,11.57l3.4,5.5c4.6-3.64,7.65-9.93,7.65-17.07S64.26,32.91,59.54,29.3Z" fill="#fff"/>
    </g>
    <rect x="-298.81" y="-43.53" width="566.02" height="566.02" fill="none"/>
  </g>
</svg>
